<svg width="15" height="15" viewBox="0 0 15 15" fill="none" xmlns="http://www.w3.org/2000/svg">
<g clip-path="url(#clip0_243_2698)">
<path d="M12.3335 8.01652C12.3335 11.0999 10.1751 12.6415 7.6098 13.5357C7.47546 13.5812 7.32955 13.579 7.19663 13.5295C4.62513 12.6415 2.4668 11.0999 2.4668 8.01652V3.69985C2.4668 3.5363 2.53177 3.37945 2.64741 3.26381C2.76306 3.14816 2.91991 3.08319 3.08346 3.08319C4.3168 3.08319 5.85846 2.34319 6.93146 1.40585C7.06211 1.29424 7.2283 1.23291 7.40013 1.23291C7.57196 1.23291 7.73815 1.29424 7.8688 1.40585C8.94796 2.34935 10.4835 3.08319 11.7168 3.08319C11.8803 3.08319 12.0372 3.14816 12.1528 3.26381C12.2685 3.37945 12.3335 3.5363 12.3335 3.69985V8.01652Z" stroke="#6A7282" stroke-width="1.23333" stroke-linecap="round" stroke-linejoin="round"/>
</g>
<defs>
<clipPath id="clip0_243_2698">
<rect width="14.8" height="14.8" fill="white"/>
</clipPath>
</defs>
</svg>
