<svg width="19" height="19" viewBox="0 0 19 19" fill="none" xmlns="http://www.w3.org/2000/svg">
<path d="M14.6556 8.48486H3.85667C3.00466 8.48486 2.31396 9.17556 2.31396 10.0276V15.4271C2.31396 16.2791 3.00466 16.9698 3.85667 16.9698H14.6556C15.5076 16.9698 16.1983 16.2791 16.1983 15.4271V10.0276C16.1983 9.17556 15.5076 8.48486 14.6556 8.48486Z" stroke="#99A1AF" stroke-width="1.54271" stroke-linecap="round" stroke-linejoin="round"/>
<path d="M5.39941 8.48467V5.39925C5.39941 4.37637 5.80575 3.39539 6.52904 2.6721C7.25232 1.94882 8.23331 1.54248 9.25619 1.54248C10.2791 1.54248 11.26 1.94882 11.9833 2.6721C12.7066 3.39539 13.113 4.37637 13.113 5.39925V8.48467" stroke="#99A1AF" stroke-width="1.54271" stroke-linecap="round" stroke-linejoin="round"/>
</svg>
