<svg width="34" height="34" viewBox="0 0 34 34" fill="none" xmlns="http://www.w3.org/2000/svg">
<path d="M13.8804 16.6562H19.4325" stroke="white" stroke-width="2.77604" stroke-linecap="round" stroke-linejoin="round"/>
<path d="M13.8804 11.104H19.4325" stroke="white" stroke-width="2.77604" stroke-linecap="round" stroke-linejoin="round"/>
<path d="M19.4325 29.1486V24.9845C19.4325 24.2483 19.14 23.5422 18.6194 23.0216C18.0988 22.501 17.3927 22.2085 16.6564 22.2085C15.9202 22.2085 15.2141 22.501 14.6935 23.0216C14.1728 23.5422 13.8804 24.2483 13.8804 24.9845V29.1486" stroke="white" stroke-width="2.77604" stroke-linecap="round" stroke-linejoin="round"/>
<path d="M8.32796 13.8804H5.55192C4.81567 13.8804 4.10957 14.1728 3.58896 14.6935C3.06835 15.2141 2.77588 15.9202 2.77588 16.6564V26.3726C2.77588 27.1088 3.06835 27.8149 3.58896 28.3355C4.10957 28.8561 4.81567 29.1486 5.55192 29.1486H27.7603C28.4965 29.1486 29.2026 28.8561 29.7232 28.3355C30.2438 27.8149 30.5363 27.1088 30.5363 26.3726V12.4924C30.5363 11.7561 30.2438 11.05 29.7232 10.5294C29.2026 10.0088 28.4965 9.71631 27.7603 9.71631H24.9842" stroke="white" stroke-width="2.77604" stroke-linecap="round" stroke-linejoin="round"/>
<path d="M8.32812 29.1484V6.9401C8.32812 6.20385 8.6206 5.49775 9.14121 4.97715C9.66182 4.45654 10.3679 4.16406 11.1042 4.16406H22.2083C22.9446 4.16406 23.6507 4.45654 24.1713 4.97715C24.6919 5.49775 24.9844 6.20385 24.9844 6.9401V29.1484" stroke="white" stroke-width="2.77604" stroke-linecap="round" stroke-linejoin="round"/>
</svg>
